<?xml version="1.0" encoding="UTF-8"?>
<svg width="8px" height="8px" viewBox="0 0 8 8" version="1.1" xmlns="http://www.w3.org/2000/svg" xmlns:xlink="http://www.w3.org/1999/xlink">
    <!-- Generator: Sketch 50.2 (55047) - http://www.bohemiancoding.com/sketch -->
    <title>decline</title>
    <desc>Created with Sketch.</desc>
    <defs></defs>
    <g id="Page-1" stroke="none" stroke-width="1" fill="none" fill-rule="evenodd">
        <g id="Artboard-1" transform="translate(-969.000000, -200.000000)" fill="#C1272D" fill-rule="nonzero">
            <g id="Group-57" transform="translate(0.000000, -0.955000)">
                <path d="M976.717777,207.662423 C976.893408,207.838054 976.893408,208.122346 976.71809,208.297662 L976.436777,208.579977 C976.261146,208.755608 975.976854,208.755608 975.801253,208.580006 L972.972029,205.751724 L970.144913,208.578833 C969.970028,208.755989 969.682972,208.755989 969.509223,208.579977 L969.227223,208.297977 C969.051592,208.122346 969.051592,207.838054 969.227223,207.662423 L972.055447,204.8342 L969.227223,202.005977 C969.051592,201.830346 969.051592,201.546054 969.227223,201.370423 L969.508087,201.089567 C969.682972,200.912411 969.970028,200.912411 970.143777,201.088423 L972.972029,203.916676 L975.801223,201.088423 C975.976854,200.912792 976.261146,200.912792 976.43709,201.088738 L976.717777,201.370423 C976.893408,201.546054 976.893408,201.830346 976.717777,202.005977 L973.889553,204.8342 L976.717777,207.662423 Z" id="decline"></path>
            </g>
        </g>
    </g>
</svg>