<svg id="Layer_1" data-name="Layer 1" xmlns="http://www.w3.org/2000/svg" xmlns:xlink="http://www.w3.org/1999/xlink" viewBox="0 0 5.08 5.08"><defs><style>.cls-1,.cls-7{fill:none;}.cls-2{clip-path:url(#clip-path);}.cls-3{clip-path:url(#clip-path-2);}.cls-4{fill:#eaeef4;}.cls-5{clip-path:url(#clip-path-3);}.cls-6{fill:#fff;}.cls-7{stroke:#d2d7de;stroke-miterlimit:10;}.cls-8{clip-path:url(#clip-path-4);}.cls-9{fill:#4d4d4e;}</style><clipPath id="clip-path"><rect class="cls-1" x="-653.57" y="-227.12" width="1025.33" height="775.82"/></clipPath><clipPath id="clip-path-2"><rect class="cls-1" x="-644.82" y="-218.37" width="1025.33" height="775.82"/></clipPath><clipPath id="clip-path-3"><rect class="cls-1" x="-642.32" y="-192.25" width="1025.33" height="775.82"/></clipPath><clipPath id="clip-path-4"><rect class="cls-1" x="-644.82" y="-218.37" width="1025.33" height="775.82"/></clipPath></defs><title>Artboard 19</title><g class="cls-2"><g class="cls-3"><rect class="cls-4" x="-162.52" y="-218.37" width="543" height="774.32"/><g class="cls-5"><path class="cls-6" d="M368,548.67a1,1,0,0,1-1,1H-147a1,1,0,0,1-1-1V-179.68a1,1,0,0,1,1-1H367a1,1,0,0,1,1,1Z"/><path class="cls-7" d="M368,548.67a1,1,0,0,1-1,1H-147a1,1,0,0,1-1-1V-179.68a1,1,0,0,1,1-1H367a1,1,0,0,1,1,1Z"/></g><g class="cls-8"><path class="cls-9" d="M5.08,2.54A2.54,2.54,0,1,1,2.54,0,2.53,2.53,0,0,1,5.08,2.54"/><rect class="cls-6" x="1.67" y="2.54" width="1.86" height="0.45"/><rect class="cls-6" x="1.21" y="1.6" width="2.78" height="0.45"/><rect class="cls-6" x="1.89" y="3.41" width="1.41" height="0.45"/></g></g></g></svg>