<?xml version="1.0" encoding="UTF-8" standalone="no"?>
<svg width="19px" height="18px" viewBox="0 0 19 18" version="1.1" xmlns="http://www.w3.org/2000/svg" xmlns:xlink="http://www.w3.org/1999/xlink">
    <!-- Generator: Sketch 44.1 (41455) - http://www.bohemiancoding.com/sketch -->
    <title>link</title>
    <desc>Created with Sketch.</desc>
    <defs></defs>
    <g id="Page-1" stroke="none" stroke-width="1" fill="none" fill-rule="evenodd">
        <g id="Artboard" transform="translate(-994.000000, -70.000000)" fill="#3E7AAB">
            <g id="Page-1" transform="translate(-3.000000, 3.000000)">
                <path d="M1005.643,73.8402 C1005.739,73.8342 1005.795,73.8412 1005.845,73.8252 C1006.179,73.7202 1006.515,73.7402 1006.831,73.8632 C1007.025,73.9382 1007.129,73.8812 1007.254,73.7522 C1007.636,73.3592 1008.023,72.9712 1008.416,72.5892 C1008.819,72.1982 1009.404,72.1272 1009.859,72.4022 C1010.522,72.8032 1010.627,73.6802 1010.065,74.2552 C1009.349,74.9852 1008.622,75.7032 1007.898,76.4252 C1007.322,76.9992 1006.68,77.0032 1006.084,76.4392 C1005.812,76.1822 1005.521,76.1662 1005.281,76.3972 C1005.041,76.6272 1005.055,76.9422 1005.317,77.2202 C1006.19,78.1452 1007.6,78.2082 1008.528,77.3272 C1009.34,76.5552 1010.135,75.7632 1010.905,74.9492 C1011.56,74.2562 1011.7,73.4222 1011.343,72.5392 C1010.735,71.0382 1008.828,70.6662 1007.645,71.8112 C1007.01,72.4252 1006.394,73.0582 1005.771,73.6842 C1005.733,73.7222 1005.703,73.7672 1005.643,73.8402 M1007.335,78.5032 C1007.248,78.5032 1007.192,78.4902 1007.144,78.5052 C1006.81,78.6112 1006.474,78.5912 1006.157,78.4692 C1005.964,78.3952 1005.86,78.4482 1005.734,78.5782 C1005.346,78.9772 1004.954,79.3712 1004.554,79.7582 C1004.165,80.1332 1003.564,80.1992 1003.129,79.9312 C1002.465,79.5212 1002.359,78.6522 1002.921,78.0772 C1003.636,77.3472 1004.364,76.6282 1005.088,75.9072 C1005.664,75.3322 1006.306,75.3292 1006.901,75.8942 C1007.172,76.1512 1007.464,76.1662 1007.704,75.9362 C1007.937,75.7122 1007.93,75.3962 1007.685,75.1302 C1006.843,74.2152 1005.43,74.1122 1004.512,74.9592 C1003.653,75.7522 1002.827,76.5842 1002.032,77.4402 C1001.404,78.1162 1001.291,78.9412 1001.639,79.7932 C1002.245,81.2762 1004.133,81.6692 1005.302,80.5582 C1005.96,79.9322 1006.589,79.2772 1007.23,78.6342 C1007.262,78.6022 1007.287,78.5632 1007.335,78.5032 M997.6524,76.1702 C997.6514,71.2982 1001.628,67.3232 1006.501,67.3262 C1011.362,67.3292 1015.331,71.3012 1015.333,76.1622 C1015.334,81.0352 1011.357,85.0102 1006.484,85.0062 C1001.624,85.0032 997.6544,81.0312 997.6524,76.1702" id="link"></path>
            </g>
        </g>
    </g>
</svg>